# xmcd CD database file
#
# Track frame offsets:
#	150
#	25355
#	49235
#	71095
#	93118
#	113985
#	142015
#	170050
#	196885
#	222085
#	251295
#	284110
#	310718
#
# Disc length: 4496 seconds
#
# Revision: 5
# Processed by: cddbd v1.5.2PL0 Copyright (c) Steve Scherf et al.
# Submitted via: CDex 1.81
#
DISCID=c4118e0d
DTITLE=Sadao Watanabe - The Best Sadao Watanabe
DYEAR=2001
DGENRE=Jazz
TTITLE0=California Shower
TTITLE1=Seventh High
TTITLE2=Ngoma Party
TTITLE3=My Country
TTITLE4=Morning Island
TTITLE5=Down East
TTITLE6=Samba Do Marcos
TTITLE7=Home Meeting
TTITLE8=Nice Shot
TTITLE9=Orange Bypass
TTITLE10=Massai Talk
TTITLE11=Samba Em Praia
TTITLE12=My Dear Life
EXTD=YEAR: 2001
EXTT0=
EXTT1=
EXTT2=
EXTT3=
EXTT4=
EXTT5=
EXTT6=
EXTT7=
EXTT8=
EXTT9=
EXTT10=
EXTT11=
EXTT12=
PLAYORDER=
